####
#
#	OBJ File Generated by LightWave3D
#	LightWave3D OBJ Export v2.3
#
####
o canon_grenade_launcher_lod2.obj
mtllib canon_grenade_launcher_lod2.mtl
g default
v -1.257 -0.0138723 0.167482
v -1.257 -0.0138723 -0.113792
v -0.589401 -0.00498139 0.620378
v -0.589401 -0.00498163 -0.616432
v -0.436073 -0.0138721 0.167482
v -0.436073 -0.0138721 -0.113792
v -0.436073 0.339869 0.167482
v -0.436073 0.339869 -0.113792
v -0.393444 0.773872 0.415781
v -0.393444 0.773872 -0.411835
v -0.0889 -0.0138719 1.31671
v -0.0888998 -0.0138723 -0.495779
v -0.0888998 -0.0138721 0.495779
v -0.0888998 0.339869 -0.495779
v -0.0888998 0.339869 0.495778
v -0.0888997 -0.0138724 -1.31671
v 0.192374 -0.013872 1.31671
v 0.192374 -0.0138724 -0.495778
v 0.192374 -0.0138721 0.495779
v 0.192374 0.339869 -0.495779
v 0.192374 0.339869 0.495778
v 0.192374 -0.0138725 -1.31671
v 0.39922 0.773872 0.415782
v 0.39922 0.773872 -0.411834
v 0.436073 -0.0051012 0.167482
v 0.436073 0.34864 0.167482
v 0.436073 -0.0051012 -0.113792
v 0.436073 0.34864 -0.113792
v 0.595177 -0.00498163 0.620379
v 0.595177 -0.00498187 -0.616432
v 1.257 -0.00510132 0.167482
v 1.257 -0.00510132 -0.113792
vt 0.00336259 0.784324
vt 0.00509843 0.781818
vt 0.057225 0.995756
vt 0.0589611 0.570386
vt 0.275104 0.995756
vt 0.276841 0.570386
vt 0.285091 0.99624
vt 0.287573 0.57008
vt 0.328967 0.784324
vt 0.330703 0.781818
vt 0.336679 0.784241
vt 0.339161 0.782079
vt 0.545357 0.784241
vt 0.547838 0.782079
vt 0.581821 0.810126
vt 0.596945 0.99624
vt 0.599426 0.57008
vt 0.628731 0.999151
vt 0.690249 0.558495
vt 0.690249 0.810126
vt 0.732184 0.667389
vt 0.732954 0.668194
vt 0.732954 0.742057
vt 0.73716 0.74752
vt 0.73716 0.999151
vt 0.744514 0.747301
vt 0.744514 0.998932
vt 0.818378 0.747301
vt 0.818378 0.998932
vt 0.819383 0.74704
vt 0.819383 0.998671
vt 0.880585 0.756182
vt 0.880585 0.879337
vt 0.927812 0.99867
vt 0.983814 0.558961
vt 0.983814 0.667389
vt 0.984584 0.668194
vt 0.984584 0.742057
vt 0.998539 0.756182
vt 0.998539 0.879337
vn -1 -1.60572e-014 -1.90592e-007
vn -1 0 -1.81516e-007
vn -0.707107 0.649384 -0.279822
vn -0.707107 0.649384 0.279821
vn -0.697515 0.62649 -0.347826
vn -0.665421 0.34175 0.663643
vn -0.447214 0.821413 0.353949
vn -0.447213 0.821413 -0.35395
vn -0.423327 0.328321 -0.844393
vn -0.35395 0.821413 -0.447214
vn -0.35395 0.821413 0.447214
vn -0.340404 0.876851 0.339494
vn -0.279822 0.649384 -0.707107
vn -0.279822 0.649384 0.707107
vn -3.26728e-007 -1.68498e-007 -1
vn -1.81516e-007 1.68498e-007 1
vn 1.45213e-007 -1.68498e-007 -1
vn 3.63031e-007 1.68498e-007 1
vn 0.277006 0.786115 -0.552531
vn 0.279822 0.649384 -0.707107
vn 0.279822 0.649384 0.707107
vn 0.35395 0.821413 0.447214
vn 0.35395 0.821413 -0.447213
vn 0.447214 0.821413 0.353949
vn 0.447214 0.821413 -0.353949
vn 0.572237 0.588928 0.570709
vn 0.665421 0.34175 0.663643
vn 0.707107 0.649384 0.279822
vn 0.707107 0.649384 -0.279822
vn 0.846655 0.323922 -0.422196
vn 1 0 1.99667e-007
vn 1 1.52925e-014 1.81516e-007
usemtl Texture_Grenade_Launcer
s 1
f 10/39/5 9/40/12 24/32/19
f 9/40/12 23/33/26 24/32/19
f 23/11/26 3/16/6 29/7/27
f 23/11/26 9/13/12 3/16/6
f 23/3/26 29/1/27 30/9/30
f 24/5/19 23/3/26 30/9/30
f 10/14/5 24/12/19 4/17/9
f 4/17/9 24/12/19 30/8/30
f 3/2/6 10/6/5 4/10/9
f 9/4/12 10/6/5 3/2/6
f 7/29/11 2/26/10 1/28/14
f 7/29/11 8/27/13 2/26/10
f 8/18/13 6/25/15 2/24/10
f 5/31/16 7/34/11 1/30/14
f 16/23/8 20/37/25 22/22/29
f 14/38/3 20/37/25 16/23/8
f 12/20/2 14/15/3 16/19/8
f 20/35/25 18/36/31 22/21/29
f 21/37/28 15/38/7 17/22/24
f 15/38/7 11/23/4 17/22/24
f 11/19/4 15/15/7 13/20/1
f 21/35/28 17/21/24 19/36/32
f 32/28/20 28/29/23 31/26/22
f 28/29/23 26/27/21 31/26/22
f 26/18/21 25/25/18 31/24/22
f 27/31/17 28/34/23 32/30/20
