####
#
#	OBJ File Generated by LightWave3D
#	LightWave3D OBJ Export v2.3
#
####
o rocket_launcher.obj
mtllib rocket_launcher.mtl
g default
v -0.633273 -0.00553437 0.726292
v -0.633273 -0.00553467 -0.553371
v -0.571523 1.06596 -0.725014
v -0.571522 1.08469 0.653958
v -0.524578 1.10966 0.5899
v -0.524577 1.10966 -0.691223
v -0.500272 -0.00553467 -0.552573
v -0.496759 1.06596 -0.725026
v -0.496759 1.08469 0.653953
v -0.48501 0.813237 0.649097
v -0.485009 0.821778 -0.729852
v -0.485009 1.33741 -0.720144
v -0.485009 1.32887 0.658815
v -0.484505 0.853872 -0.691229
v -0.484504 0.853872 0.589891
v -0.484504 1.24065 -0.691234
v -0.484504 1.24065 0.589883
v -0.46023 1.10966 0.589898
v -0.438384 1.10966 0.492682
v -0.438384 1.10966 0.495074
v -0.429036 0.917604 0.589905
v -0.429036 1.17692 0.589897
v -0.422366 -0.00553467 -0.476714
v -0.411372 0.947616 0.492687
v -0.411372 0.947616 0.495079
v -0.411371 1.14691 0.492687
v -0.411371 1.14691 0.495079
v -0.410247 0.821778 -0.729871
v -0.410247 0.813237 0.649087
v -0.410246 1.33741 -0.720162
v -0.410246 1.32887 0.658805
v -0.401915 -0.00553449 0.729871
v -0.401914 -0.00553449 0.692662
v -0.368379 0.592419 0.414726
v -0.368379 0.592419 -0.346116
v -0.359778 1.04575 -0.0114864
v -0.359442 1.04577 0.492674
v -0.355727 0.583842 0.391818
v -0.355727 0.664261 0.391818
v -0.355727 0.583842 -0.26536
v -0.355727 0.66426 -0.26536
v -0.343703 1.09458 -0.0114766
v -0.343367 1.0946 0.492684
v -0.338738 1.00183 -0.0114802
v -0.338401 1.00185 0.492681
v -0.291314 0.52487 -0.346916
v -0.284828 1.11405 -0.0114851
v -0.284492 1.11408 0.492675
v -0.282556 0.983748 -0.0114851
v -0.28222 0.983771 0.492675
v -0.261978 0.947616 0.492682
v -0.261978 1.14691 0.492677
v -0.251369 0.504312 0.458776
v -0.251369 0.48127 0.421567
v -0.245855 0.496934 -0.302988
v -0.235642 0.66426 -0.145268
v -0.235642 0.664261 0.281346
v -0.226374 1.00183 -0.0114876
v -0.226374 1.09457 -0.0114937
v -0.226038 1.00185 0.492673
v -0.226038 1.0946 0.492666
v -0.207556 1.05689 0.158376
v -0.207555 1.05689 -0.0991768
v -0.207041 1.0482 -0.0114925
v -0.206705 1.04823 0.492669
v -0.112584 0.947617 0.495068
v -0.112584 0.947617 0.492676
v -0.112584 1.04726 0.492673
v -0.112584 1.14691 0.495059
v -0.112584 1.14691 0.492668
v -0.0839964 0.917604 0.589893
v -0.0839963 1.17692 0.589892
v -0.0202649 1.24065 -0.691224
v -0.0202648 0.853872 -0.691219
v -0.0202648 0.853872 0.589893
v -0.0202648 1.24065 0.589893
v 0.0048366 1.24422 -0.691228
v 0.0048369 0.857439 0.589899
v 0.0048369 1.24422 0.589899
v 0.00483709 0.857439 -0.691224
v 0.0685684 1.18049 0.589899
v 0.0685686 0.921171 0.589899
v 0.0971562 1.15048 0.495066
v 0.0971562 1.15048 0.492675
v 0.0971562 0.951183 0.495071
v 0.0971562 1.05083 0.492677
v 0.0971562 0.951183 0.49268
v 0.189801 1.05177 -0.0114864
v 0.190027 1.05179 0.492674
v 0.209179 1.05689 -0.0991719
v 0.209179 1.05689 0.158376
v 0.210384 1.0054 -0.0114839
v 0.210384 1.09815 -0.0114876
v 0.21061 1.00542 0.492676
v 0.21061 1.09817 0.492673
v 0.237265 0.66426 -0.145274
v 0.237265 0.66426 0.281342
v 0.24655 0.951183 0.492684
v 0.24655 1.15048 0.492682
v 0.249952 0.496934 -0.302991
v 0.255692 0.504312 0.458777
v 0.255693 0.48127 0.421567
v 0.266566 0.985889 -0.0114815
v 0.266792 0.985908 0.492679
v 0.269049 1.12172 -0.0114827
v 0.269274 1.12174 0.492679
v 0.295634 0.52487 -0.346915
v 0.322748 1.0054 -0.0114766
v 0.322973 1.00542 0.492685
v 0.327714 1.09815 -0.0114729
v 0.327939 1.09817 0.492687
v 0.344624 1.04644 -0.0114876
v 0.34485 1.04645 0.492674
v 0.35735 0.583842 -0.265356
v 0.35735 0.583842 0.391815
v 0.35735 0.66426 0.391815
v 0.35735 0.66426 -0.265356
v 0.372699 0.592419 0.414726
v 0.3727 0.592419 -0.346115
v 0.395944 0.951183 0.492691
v 0.395944 0.951183 0.495082
v 0.395944 1.15048 0.495082
v 0.395944 1.15048 0.492691
v 0.413608 0.921171 0.589903
v 0.413608 1.18049 0.589898
v 0.422812 -0.00553467 -0.476713
v 0.422956 1.11322 0.495076
v 0.422956 1.11322 0.492685
v 0.423696 0.821365 0.653082
v 0.423696 0.829906 -0.72586
v 0.423696 1.33699 0.662801
v 0.423696 1.34553 -0.716159
v 0.444802 1.11322 0.589903
v 0.469076 0.857439 0.589895
v 0.469076 0.857439 -0.691229
v 0.469076 1.24422 -0.691234
v 0.469076 1.24422 0.589895
v 0.474356 -0.00553449 0.692661
v 0.474356 -0.00553449 0.729871
v 0.498459 1.33699 0.662824
v 0.498459 0.829906 -0.72586
v 0.498459 0.821365 0.653111
v 0.498459 1.34553 -0.716146
v 0.50027 -0.00553467 -0.552571
v 0.50915 1.11322 -0.691225
v 0.50915 1.11322 0.589903
v 0.510208 1.09282 0.657952
v 0.510208 1.07408 -0.72102
v 0.584972 1.07408 -0.720998
v 0.584972 1.09282 0.657961
v 0.633273 -0.00553449 0.726293
v 0.633273 -0.00553467 -0.553372
vt 0.00111943 0.998066
vt 0.00133929 0.885538
vt 0.00156005 0.791743
vt 0.00156112 0.679453
vt 0.00365498 0.344605
vt 0.00371512 0.154877
vt 0.00371512 0.173645
vt 0.00371512 0.175264
vt 0.00371512 0.24874
vt 0.00371512 0.321092
vt 0.00371512 0.322711
vt 0.00371512 0.339458
vt 0.00423265 0.45718
vt 0.00516305 0.552565
vt 0.00551579 0.665141
vt 0.00671839 0.0919005
vt 0.0190913 0.0129251
vt 0.0190913 0.132347
vt 0.0448384 0.154877
vt 0.0448405 0.24874
vt 0.0448421 0.339458
vt 0.0465897 0.154877
vt 0.0465911 0.24874
vt 0.0465929 0.339458
vt 0.162429 0.0129251
vt 0.162429 0.132347
vt 0.17024 0.0128137
vt 0.17024 0.132235
vt 0.308013 0.998066
vt 0.308455 0.679453
vt 0.30856 0.88653
vt 0.308671 0.790734
vt 0.310549 0.344605
vt 0.310909 0.998703
vt 0.310913 0.645818
vt 0.311014 0.456777
vt 0.312223 0.551368
vt 0.31241 0.665141
vt 0.313578 0.132235
vt 0.313578 0.0128137
vt 0.315211 0.422323
vt 0.315211 0.451296
vt 0.315211 0.480269
vt 0.321457 0.395346
vt 0.325951 0.0917891
vt 0.329311 0.348232
vt 0.329311 0.406177
vt 0.335928 0.0284384
vt 0.337464 0.145305
vt 0.342213 0.451576
vt 0.343578 0.139065
vt 0.34441 0.376772
vt 0.345759 0.0283093
vt 0.346243 0.0373744
vt 0.346312 0.24874
vt 0.347015 0.24874
vt 0.347049 0.339458
vt 0.347296 0.145175
vt 0.347758 0.339458
vt 0.34808 0.485488
vt 0.348082 0.154877
vt 0.348198 0.465059
vt 0.348198 0.438093
vt 0.348801 0.154877
vt 0.349084 0.390968
vt 0.350527 0.364002
vt 0.351547 0.0282335
vt 0.352109 0.139288
vt 0.353086 0.145099
vt 0.354774 0.0375983
vt 0.357035 0.139417
vt 0.357336 0.0281576
vt 0.358648 0.422323
vt 0.358648 0.480269
vt 0.358876 0.145024
vt 0.3597 0.0377268
vt 0.36196 0.139545
vt 0.364533 0.43242
vt 0.364625 0.0378548
vt 0.365255 0.471913
vt 0.366202 0.396631
vt 0.366862 0.358745
vt 0.367668 0.0280206
vt 0.369209 0.144887
vt 0.370847 0.139778
vt 0.372748 0.348232
vt 0.372748 0.406177
vt 0.373513 0.0380877
vt 0.378001 0.027883
vt 0.379541 0.144749
vt 0.379796 0.140013
vt 0.380868 0.438093
vt 0.382312 0.465059
vt 0.382462 0.0383229
vt 0.383198 0.364002
vt 0.383198 0.390968
vt 0.383883 0.027809
vt 0.384636 0.140137
vt 0.385421 0.144675
vt 0.385701 0.154877
vt 0.385701 0.173644
vt 0.385701 0.175263
vt 0.385701 0.24874
vt 0.385701 0.320453
vt 0.385701 0.322072
vt 0.385701 0.339458
vt 0.387229 0.450024
vt 0.387301 0.0384471
vt 0.388819 0.377485
vt 0.389412 0.0277333
vt 0.389552 0.140267
vt 0.390949 0.144599
vt 0.392215 0.0385771
vt 0.398084 0.14049
vt 0.398752 0.257838
vt 0.399244 0.0276049
vt 0.400746 0.0387999
vt 0.40078 0.144471
vt 0.402084 0.422323
vt 0.402084 0.480269
vt 0.407668 0.48475
vt 0.409645 0.0342728
vt 0.409645 0.222982
vt 0.409938 0.469437
vt 0.413647 0.45929
vt 0.416185 0.348232
vt 0.416185 0.377205
vt 0.416185 0.406177
vt 0.433324 0.00679815
vt 0.433324 0.0342728
vt 0.433324 0.222982
vt 0.433324 0.248465
vt 0.443374 0.690493
vt 0.445374 0.258355
vt 0.447882 0.253389
vt 0.451387 0.475433
vt 0.464449 0.256718
vt 0.468688 0.0648836
vt 0.468688 0.189312
vt 0.48757 0.66167
vt 0.488048 0.659059
vt 0.497101 0.457311
vt 0.497298 0.714029
vt 0.500511 0.723787
vt 0.501503 0.70525
vt 0.506179 0.647804
vt 0.512278 0.72768
vt 0.512732 0.701636
vt 0.521408 0.747612
vt 0.522066 0.99727
vt 0.52284 0.44074
vt 0.523961 0.70525
vt 0.523961 0.723787
vt 0.527826 0.714518
vt 0.537451 0.424018
vt 0.545402 0.416762
vt 0.606618 0.0648836
vt 0.606618 0.189313
vt 0.607144 0.715232
vt 0.611258 0.705964
vt 0.611258 0.724501
vt 0.622487 0.702064
vt 0.622984 0.729213
vt 0.625878 0.74761
vt 0.629727 0.997491
vt 0.633716 0.705964
vt 0.634709 0.724501
vt 0.638089 0.714165
vt 0.643358 0.00679815
vt 0.643358 0.0342728
vt 0.643358 0.222982
vt 0.643358 0.248465
vt 0.656619 0.647803
vt 0.667692 0.0342728
vt 0.667692 0.222982
vt 0.674721 0.659135
vt 0.677603 0.663834
vt 0.679856 0.0822545
vt 0.690033 0.127518
vt 0.690033 0.240212
vt 0.691741 0.00639021
vt 0.691741 0.121107
vt 0.698941 0.0822544
vt 0.708193 0.0252928
vt 0.708193 0.102205
vt 0.708602 0.146087
vt 0.708602 0.221643
vt 0.712548 0.475419
vt 0.72112 0.693651
vt 0.721683 0.415735
vt 0.728663 0.442129
vt 0.729406 0.421461
vt 0.744289 0.488491
vt 0.750406 0.459436
vt 0.756973 0.459065
vt 0.777082 0.254933
vt 0.792617 0.24851
vt 0.796231 0.260722
vt 0.809134 0.146087
vt 0.809134 0.221643
vt 0.81053 0.0252928
vt 0.81053 0.102205
vt 0.813367 0.951582
vt 0.818223 0.202044
vt 0.825296 0.127518
vt 0.825296 0.240212
vt 0.829216 0.409446
vt 0.829432 0.00639021
vt 0.829432 0.121107
vt 0.830987 0.490895
vt 0.831614 0.651327
vt 0.833597 0.568543
vt 0.836972 0.202044
vt 0.837619 0.853937
vt 0.840039 0.71253
vt 0.842888 0.260835
vt 0.843275 0.707304
vt 0.844407 0.994458
vt 0.849183 0.850186
vt 0.855339 0.184982
vt 0.857423 0.382213
vt 0.858939 0.0324743
vt 0.859693 0.215854
vt 0.866166 0.0108417
vt 0.871751 0.190871
vt 0.875727 0.203699
vt 0.876668 0.401219
vt 0.876764 0.564854
vt 0.878128 0.00482833
vt 0.882394 0.172831
vt 0.883767 0.0413301
vt 0.886165 0.375033
vt 0.888191 0.229479
vt 0.892766 0.0280836
vt 0.903863 0.38221
vt 0.910572 0.403416
vt 0.958384 0.0401331
vt 0.961025 0.172168
vt 0.964898 0.228889
vt 0.965637 0.373269
vt 0.974032 0.190003
vt 0.975517 0.202939
vt 0.979179 0.565742
vt 0.984988 0.850233
vt 0.986081 0.032737
vt 0.987364 0.395518
vt 0.987409 0.0197244
vt 0.989142 0.185114
vt 0.992484 0.215061
vt 0.993302 0.70838
vt 0.993328 0.381427
vt 0.993906 0.994547
vt 0.994149 0.712585
vt 0.998861 0.410916
vt 0.999005 0.568533
vt 0.999252 0.854037
vn -0.949463 -0.22511 0.218738
vn -0.894427 -1.65732e-007 -0.447215
vn -0.884634 0.195817 0.423177
vn -0.872365 0.175056 -0.456437
vn -0.861892 -0.101812 0.496766
vn -0.815232 -0.0847672 -0.572898
vn -0.815189 0.0847641 0.572959
vn -0.793309 0.52389 0.310162
vn -0.776862 0.483827 -0.402985
vn -0.77197 0.0672356 0.632093
vn -0.745315 -0.542604 0.387411
vn -0.703703 -0.658742 0.266195
vn -0.678034 3.75176e-005 0.73503
vn -0.677961 5.55892e-005 0.735097
vn -0.66965 -0.123814 0.732283
vn -0.656299 -0.706316 0.265312
vn -0.649319 0.646584 0.400392
vn -0.627749 0.73388 0.259523
vn -0.6243 -0.725167 0.290486
vn -0.619649 -0.424829 -0.659966
vn -0.598615 0.562401 0.570409
vn -0.592843 0.64467 0.482636
vn -0.588397 -0.519545 0.619566
vn -0.578403 -0.0831315 0.811504
vn -0.578174 0.0831454 -0.811666
vn -0.534521 0.801784 0.267261
vn -0.534521 0.267263 0.801784
vn -0.505259 0.825492 -0.251547
vn -0.494456 0.697341 -0.518872
vn -0.485068 -0.485081 -0.727602
vn -0.483887 -0.387503 0.784662
vn -0.44721 0 0.894429
vn -0.444597 0.135752 -0.885384
vn -0.443595 0.261118 0.857345
vn -0.442895 0.517816 0.731923
vn -0.43873 0.765908 0.470001
vn -0.432291 -0.215174 0.875685
vn -0.413996 -0.8245 0.385755
vn -0.408255 0.816493 -0.408249
vn -0.408245 -0.408251 0.816496
vn -0.380719 0.182637 -0.906475
vn -0.377472 -0.353424 0.855925
vn -0.366985 0.503939 0.7819
vn -0.352999 -0.380006 0.854978
vn -0.352189 -0.0711428 0.933221
vn -0.350471 0.381204 0.855485
vn -0.345028 0.792061 0.503582
vn -0.331294 0.214562 -0.918808
vn -0.313039 -0.102212 -0.944224
vn -0.295127 -0.71805 -0.63032
vn -0.292108 0.0254424 0.956047
vn -0.267259 0.801784 -0.534523
vn -0.23445 0.862426 0.448615
vn -0.228419 -0.607403 0.760846
vn -0.222287 -0.431864 -0.874118
vn -0.215613 0.462836 0.859822
vn -0.200085 0.199188 0.959318
vn -0.153446 0.4574 -0.875922
vn -0.0907691 -0.677377 0.730015
vn -0.0792749 0.684575 0.724619
vn -0.0766313 -0.686303 0.723267
vn -0.0737323 0.687642 0.722297
vn -6.72954e-005 0.000110722 1
vn -4.88208e-005 -0.000161758 1
vn -4.32221e-005 -0.554764 0.832008
vn -4.17136e-005 -7.49082e-005 1
vn -3.85061e-005 4.30679e-005 1
vn -3.67228e-005 3.22081e-005 1
vn -3.06575e-005 -9.93113e-005 1
vn -2.43219e-005 0.447291 0.894389
vn -2.31921e-005 0.000142405 1
vn -7.62616e-006 -0.707101 -0.707112
vn -3.73146e-006 0.447243 0.894413
vn -7.93623e-007 -2.53968e-005 1
vn 2.08717e-006 8.95092e-005 1
vn 5.30168e-006 0.44719 -0.894439
vn 5.697e-006 -0.44721 -0.894429
vn 6.03605e-006 -3.82304e-005 1
vn 6.36934e-006 -3.40765e-005 -1
vn 6.92158e-006 6.65628e-005 1
vn 8.04583e-006 -2.0757e-005 -1
vn 1.65238e-005 0.707075 -0.707139
vn 1.86979e-005 0.000188782 1
vn 2.24321e-005 -0.554734 0.832028
vn 2.70236e-005 -7.98718e-005 1
vn 2.80337e-005 4.86087e-006 1
vn 3.9215e-005 2.46741e-005 1
vn 5.10158e-005 -4.85166e-005 1
vn 6.43671e-005 0.000101733 1
vn 7.63901e-005 -0.000142038 1
vn 0.04702 -0.428285 0.90242
vn 0.0875784 0.815998 0.571382
vn 0.0940888 0.813485 0.573924
vn 0.108022 -0.807427 0.579994
vn 0.16136 0.713127 -0.682212
vn 0.200087 0.199215 0.959311
vn 0.215608 0.462818 0.859833
vn 0.215745 -0.0578338 -0.974736
vn 0.21822 0.872871 0.436435
vn 0.228389 -0.607382 0.760872
vn 0.267274 0.534506 -0.801791
vn 0.295099 -0.71804 -0.630345
vn 0.329039 -0.283273 -0.900827
vn 0.330155 0.212645 -0.919663
vn 0.340123 0.67127 0.658569
vn 0.358413 -0.533109 0.766378
vn 0.36365 0.864127 0.347913
vn 0.366917 0.503929 0.781938
vn 0.383395 0.840995 -0.381753
vn 0.383883 0.561186 0.733283
vn 0.389955 -0.546543 0.741098
vn 0.404116 -0.550734 0.73033
vn 0.408246 -0.40825 0.816497
vn 0.413998 -0.824495 0.385764
vn 0.432285 -0.215215 0.875678
vn 0.438661 0.765943 0.47001
vn 0.441936 0.681578 0.583219
vn 0.447217 -8.28662e-007 -0.894425
vn 0.454931 0.306708 0.836043
vn 0.494478 0.697326 -0.518872
vn 0.501741 0.12004 -0.856648
vn 0.50284 0.00115594 0.864379
vn 0.534514 0.267265 0.801788
vn 0.578166 0.083132 -0.811673
vn 0.57833 -0.0831438 0.811555
vn 0.588346 -0.519546 0.619613
vn 0.603202 0.559197 0.568723
vn 0.615713 0.529927 0.58316
vn 0.619531 -0.424914 -0.660023
vn 0.624291 -0.725178 0.290478
vn 0.629564 0.512797 0.583685
vn 0.638921 -0.504949 0.58035
vn 0.649323 0.646582 0.40039
vn 0.666668 0.666666 -0.333333
vn 0.666669 -0.666666 -0.333331
vn 0.669641 -0.123797 0.732295
vn 0.674813 2.94397e-005 0.737989
vn 0.674821 2.20521e-005 0.737982
vn 0.678984 0.0436765 0.732853
vn 0.697904 0.25904 0.667704
vn 0.702393 0.132363 -0.699374
vn 0.703876 0.171144 0.689398
vn 0.745259 -0.542663 0.387434
vn 0.764814 -0.544117 0.344958
vn 0.776327 0.0500237 0.628342
vn 0.779446 0.479433 -0.403246
vn 0.793308 0.523895 0.310156
vn 0.815179 0.084769 0.572972
vn 0.815257 -0.084755 -0.572863
vn 0.872356 0.175074 -0.456446
vn 0.894428 -4.97196e-007 0.447213
vn 0.94946 -0.225117 0.218741
usemtl Texture_Launcher_Rocket
s 1
f 15/4/65 14/30/77 74/32/135
f 75/3/113 15/4/65 74/32/135
f 16/29/82 17/1/70 73/31/101
f 17/1/70 76/2/123 73/31/101
f 14/40/77 73/28/101 74/27/135
f 16/39/82 73/28/101 6/45/79
f 6/45/79 73/28/101 14/40/77
f 76/2/123 75/3/113 74/32/135
f 73/31/101 76/2/123 74/32/135
f 71/186/57 21/199/97 15/205/65
f 71/186/57 15/205/65 75/179/113
f 18/204/136 5/213/68 21/199/97
f 21/199/97 5/213/68 15/205/65
f 22/200/100 17/206/70 18/204/136
f 17/206/70 5/213/68 18/204/136
f 76/180/123 17/206/70 72/187/37
f 72/187/37 17/206/70 22/200/100
f 76/180/123 71/186/57 75/179/113
f 76/180/123 72/187/37 71/186/57
f 66/239/17 25/240/147 21/251/97
f 71/249/57 66/239/17 21/251/97
f 20/235/152 18/236/136 25/240/147
f 25/240/147 18/236/136 21/246/97
f 27/232/130 22/227/100 18/236/136
f 27/232/130 18/236/136 20/235/152
f 72/223/37 22/221/100 69/233/38
f 22/221/100 27/232/130 69/233/38
f 72/226/37 66/239/17 71/242/57
f 72/226/37 69/233/38 66/239/17
f 35/150/58 34/149/47 119/165/95
f 34/149/47 118/164/105 119/165/95
f 138/137/5 102/156/45 33/196/142
f 102/156/45 54/190/106 33/196/142
f 118/164/105 151/211/127 152/203/146
f 119/165/95 118/164/105 152/203/146
f 34/149/47 35/150/58 2/34/9
f 1/35/21 34/149/47 2/34/9
f 151/60/127 118/133/105 139/121/34
f 118/133/105 101/140/31 139/121/34
f 118/133/105 34/189/47 53/177/122
f 118/133/105 53/177/122 101/140/31
f 34/189/47 1/210/21 32/193/119
f 53/177/122 34/189/47 32/193/119
f 101/155/31 138/137/5 139/135/34
f 101/155/31 102/156/45 138/137/5
f 101/155/31 53/192/122 54/190/106
f 102/156/45 101/155/31 54/190/106
f 33/196/142 53/192/122 32/197/119
f 54/190/106 53/192/122 33/196/142
f 2/216/9 35/195/58 7/198/104
f 35/195/58 46/191/103 7/198/104
f 35/195/58 119/142/95 107/151/49
f 46/191/103 35/195/58 107/151/49
f 119/142/95 152/115/146 144/134/48
f 107/151/49 119/142/95 144/134/48
f 134/5/84 80/36/30 135/33/72
f 134/5/84 78/13/40 80/36/30
f 79/14/27 137/15/73 77/37/39
f 137/15/73 136/38/76 77/37/39
f 77/26/39 136/18/76 80/25/30
f 136/18/76 145/16/81 80/25/30
f 80/25/30 145/16/81 135/17/72
f 79/14/27 77/37/39 80/36/30
f 78/13/40 79/14/27 80/36/30
f 124/184/56 82/201/96 134/181/84
f 82/201/96 78/208/40 134/181/84
f 146/178/86 133/183/15 124/184/56
f 146/178/86 124/184/56 134/181/84
f 137/182/73 125/185/54 133/183/15
f 146/178/86 137/182/73 133/183/15
f 125/185/54 137/182/73 81/202/115
f 137/182/73 79/209/27 81/202/115
f 81/202/115 79/209/27 82/201/96
f 82/201/96 79/209/27 78/208/40
f 121/237/8 85/238/133 124/245/56
f 124/245/56 85/238/133 82/248/96
f 133/229/15 127/234/1 121/237/8
f 133/229/15 121/237/8 124/247/56
f 133/224/15 122/231/19 127/234/1
f 125/222/54 122/231/19 133/224/15
f 122/231/19 125/222/54 83/230/114
f 125/222/54 81/220/115 83/230/114
f 83/230/114 81/225/115 85/238/133
f 85/238/133 81/225/115 82/241/96
f 129/6/11 141/102/102 142/8/126
f 130/100/20 141/102/102 129/6/11
f 143/105/120 132/106/4 131/12/36
f 143/105/120 131/12/36 140/11/108
f 150/9/148 147/20/24 142/12/126
f 147/20/24 129/21/11 142/12/126
f 149/103/149 150/9/148 142/8/126
f 141/102/102 149/103/149 142/8/126
f 148/56/25 149/103/149 141/106/102
f 148/56/25 141/106/102 130/59/20
f 147/20/24 148/56/25 129/21/11
f 148/56/25 130/59/20 129/21/11
f 140/6/108 131/19/36 147/20/24
f 140/6/108 147/20/24 150/9/148
f 143/105/120 140/11/108 150/9/148
f 143/105/120 150/9/148 149/103/149
f 148/56/25 143/100/120 149/103/149
f 132/64/4 143/100/120 148/56/25
f 147/20/24 132/64/4 148/56/25
f 131/19/36 132/64/4 147/20/24
f 11/101/50 28/100/129 29/6/143
f 11/101/50 29/6/143 10/7/23
f 12/104/29 13/10/43 31/12/116
f 30/106/150 12/104/29 31/12/116
f 9/23/125 4/9/7 10/12/23
f 29/24/143 9/23/125 10/12/23
f 3/103/6 11/101/50 10/7/23
f 4/9/7 3/103/6 10/7/23
f 8/55/124 28/57/129 11/106/50
f 3/103/6 8/55/124 11/106/50
f 8/55/124 9/23/125 29/24/143
f 28/57/129 8/55/124 29/24/143
f 31/22/116 13/6/43 9/23/125
f 9/23/125 13/6/43 4/9/7
f 13/10/43 12/104/29 4/9/7
f 4/9/7 12/104/29 3/103/6
f 12/100/29 30/61/150 8/55/124
f 12/100/29 8/55/124 3/103/6
f 30/61/150 31/22/116 9/23/125
f 30/61/150 9/23/125 8/55/124
f 116/170/99 39/130/26 38/129/32
f 116/170/99 38/129/32 115/169/151
f 117/171/134 116/170/99 115/174/151
f 117/171/134 115/174/151 114/175/118
f 41/131/52 117/171/134 114/172/118
f 40/132/2 41/131/52 114/172/118
f 39/130/26 41/131/52 40/123/2
f 38/122/32 39/130/26 40/123/2
f 91/252/140 62/218/3 57/214/53
f 91/252/140 57/214/53 97/256/107
f 91/228/140 97/207/107 96/254/109
f 90/243/141 91/228/140 96/254/109
f 63/244/33 90/219/141 96/215/109
f 56/253/28 63/244/33 96/215/109
f 62/250/3 63/217/33 56/212/28
f 57/255/53 62/250/3 56/212/28
f 57/138/53 39/130/26 116/170/99
f 57/138/53 116/170/99 97/157/107
f 41/131/52 39/130/26 56/139/28
f 39/130/26 57/138/53 56/139/28
f 117/171/134 41/131/52 96/158/109
f 41/131/52 56/139/28 96/158/109
f 116/170/99 117/171/134 96/158/109
f 97/157/107 116/170/99 96/158/109
f 46/176/103 55/173/98 23/188/121
f 7/194/104 46/176/103 23/188/121
f 55/173/98 46/176/103 100/146/55
f 46/176/103 107/141/49 100/146/55
f 100/146/55 107/141/49 126/136/41
f 107/141/49 144/125/48 126/136/41
f 23/188/121 55/173/98 126/136/41
f 55/173/98 100/146/55 126/136/41
f 47/147/91 42/144/144 36/143/139
f 47/147/91 36/143/139 44/145/128
f 47/147/91 44/145/128 49/148/92
f 58/152/22 47/147/91 49/148/92
f 59/153/16 47/147/91 64/154/14
f 64/154/14 47/147/91 58/152/22
f 110/167/12 105/163/94 112/168/51
f 105/163/94 93/161/132 112/168/51
f 93/161/132 88/159/137 112/168/51
f 112/168/51 88/159/137 92/160/131
f 108/166/18 112/168/51 103/162/93
f 112/168/51 92/160/131 103/162/93
f 60/95/46 50/82/62 51/86/83
f 67/126/75 60/95/46 51/86/83
f 37/52/145 19/44/85 24/46/89
f 45/66/117 37/52/145 24/46/89
f 26/47/88 19/44/85 43/65/111
f 43/65/111 19/44/85 37/52/145
f 52/87/90 26/47/88 48/81/61
f 48/81/61 26/47/88 43/65/111
f 70/128/74 65/109/13 68/127/67
f 70/128/74 61/96/44 65/109/13
f 104/78/60 98/73/71 120/119/63
f 109/92/35 104/78/60 120/119/63
f 89/50/138 86/42/87 87/41/80
f 94/63/110 89/50/138 87/41/80
f 106/80/59 99/74/64 95/62/112
f 99/74/64 84/43/78 95/62/112
f 128/124/69 111/93/42 113/107/10
f 128/124/69 123/120/66 111/93/42
f 113/107/10 109/92/35 120/119/63
f 128/124/69 113/107/10 120/119/63
f 70/128/74 52/87/90 61/96/44
f 52/87/90 48/81/61 61/96/44
f 50/82/62 45/66/117 24/46/89
f 51/86/83 50/82/62 24/46/89
f 65/109/13 60/95/46 67/126/75
f 68/127/67 65/109/13 67/126/75
f 123/120/66 106/80/59 111/93/42
f 123/120/66 99/74/64 106/80/59
f 94/63/110 87/41/80 98/73/71
f 104/78/60 94/63/110 98/73/71
f 95/62/112 84/43/78 89/50/138
f 89/50/138 84/43/78 86/42/87
f 50/51/62 58/70/22 49/54/92
f 60/68/46 58/70/22 50/51/62
f 44/113/128 45/111/117 49/117/92
f 45/111/117 50/114/62 49/117/92
f 36/108/139 37/98/145 44/113/128
f 37/98/145 45/111/117 44/113/128
f 42/94/144 43/91/111 37/98/145
f 42/94/144 37/98/145 36/108/139
f 47/88/91 48/85/61 43/91/111
f 47/88/91 43/91/111 42/94/144
f 61/77/44 48/85/61 59/79/16
f 48/85/61 47/88/91 59/79/16
f 65/71/13 59/79/16 64/76/14
f 61/77/44 59/79/16 65/71/13
f 60/68/46 65/71/13 58/70/22
f 65/71/13 64/76/14 58/70/22
f 104/116/60 108/112/18 103/118/93
f 109/110/35 108/112/18 104/116/60
f 92/58/131 94/53/110 103/49/93
f 94/53/110 104/48/60 103/49/93
f 88/69/137 89/67/138 92/58/131
f 89/67/138 94/53/110 92/58/131
f 93/75/132 95/72/112 89/67/138
f 93/75/132 89/67/138 88/69/137
f 105/84/94 106/83/59 95/72/112
f 105/84/94 95/72/112 93/75/132
f 111/89/42 106/83/59 110/90/12
f 106/83/59 105/84/94 110/90/12
f 113/97/10 110/90/12 112/99/51
f 111/89/42 110/90/12 113/97/10
f 109/110/35 113/97/10 108/112/18
f 113/97/10 112/99/51 108/112/18
