####
#
#	OBJ File Generated by LightWave3D
#	LightWave3D OBJ Export v2.3
#
####
o rocket_launcher_lod2.obj
mtllib rocket_launcher_lod2.mtl
g default
v -0.633273 -0.00200962 0.726634
v -0.633273 -0.00200985 -0.553029
v -0.524577 1.04613 -0.690882
v -0.519201 0.749712 0.649434
v -0.519201 0.758253 -0.729514
v -0.5192 1.27388 -0.719805
v -0.5192 1.26534 0.659152
v -0.494813 -0.00200985 -0.548172
v -0.484505 0.790347 -0.690888
v -0.484505 0.790348 0.590232
v -0.484504 1.17713 -0.690893
v -0.484504 1.17713 0.590224
v -0.479701 0.758254 -0.729536
v -0.479701 0.749712 0.649426
v -0.4797 1.27388 -0.719824
v -0.4797 1.26534 0.659144
v -0.429037 0.854079 0.590246
v -0.429036 1.1134 0.590237
v -0.401915 -0.00200962 0.729536
v -0.368379 0.595944 0.415068
v -0.368379 0.595944 -0.345775
v -0.288532 0.532587 -0.361444
v -0.251369 0.507712 0.458439
v -0.235642 0.600736 -0.144929
v -0.235642 0.600736 0.281688
v -0.207556 0.993368 0.158715
v -0.207556 0.993368 -0.0988362
v -0.0839965 0.85408 0.590234
v -0.0839964 1.1134 0.590234
v -0.00771418 1.17891 -0.690886
v -0.00771406 1.17891 0.590238
v -0.00771395 0.792131 0.590239
v -0.00771384 0.792131 -0.690881
v 0.0685684 1.11696 0.590241
v 0.0685686 0.857647 0.590241
v 0.209179 0.993368 -0.0988313
v 0.209179 0.993368 0.158715
v 0.237265 0.600736 -0.144934
v 0.237265 0.600736 0.281683
v 0.255692 0.507712 0.458441
v 0.297739 0.532587 -0.358483
v 0.372699 0.595944 0.415068
v 0.3727 0.595944 -0.345773
v 0.413608 0.857647 0.590245
v 0.413608 1.11696 0.59024
v 0.442529 0.75784 0.65342
v 0.442529 1.27347 0.66314
v 0.442529 0.766381 -0.725521
v 0.442529 1.28201 -0.71582
v 0.469076 0.793915 0.590237
v 0.469076 0.793915 -0.690888
v 0.469076 1.1807 -0.690894
v 0.469076 1.1807 0.590237
v 0.474356 -0.00200974 0.729533
v 0.49142 0.766381 -0.725521
v 0.49142 1.27347 0.663164
v 0.49142 0.75784 0.653451
v 0.49142 1.28201 -0.715809
v 0.492424 -0.00200997 -0.548171
v 0.50915 1.0497 -0.690885
v 0.633273 -0.00200985 0.726635
v 0.633273 -0.00200997 -0.55303
vt 0.00111943 0.998066
vt 0.00133929 0.885538
vt 0.00156005 0.791743
vt 0.00156112 0.679453
vt 0.00365498 0.344605
vt 0.00371512 0.173645
vt 0.00371512 0.175264
vt 0.00371512 0.321092
vt 0.00371512 0.322711
vt 0.00423265 0.45718
vt 0.00516305 0.552565
vt 0.00551579 0.665141
vt 0.00671839 0.0919005
vt 0.0190913 0.0129251
vt 0.0190913 0.132347
vt 0.0448384 0.154877
vt 0.0448421 0.339458
vt 0.0465897 0.154877
vt 0.0465929 0.339458
vt 0.162429 0.0129251
vt 0.162429 0.132347
vt 0.17024 0.0128137
vt 0.17024 0.132235
vt 0.308013 0.998066
vt 0.308455 0.679453
vt 0.30856 0.88653
vt 0.308671 0.790734
vt 0.310549 0.344605
vt 0.310909 0.998703
vt 0.310913 0.645818
vt 0.311014 0.456777
vt 0.312223 0.551368
vt 0.31241 0.665141
vt 0.313578 0.132235
vt 0.313578 0.0128137
vt 0.323843 0.419133
vt 0.323843 0.480655
vt 0.325951 0.0917891
vt 0.332872 0.406501
vt 0.332872 0.343471
vt 0.347049 0.339458
vt 0.347758 0.339458
vt 0.34808 0.485488
vt 0.348082 0.154877
vt 0.348801 0.154877
vt 0.385701 0.173644
vt 0.385701 0.175263
vt 0.385701 0.320453
vt 0.385701 0.322072
vt 0.398752 0.257838
vt 0.405702 0.419133
vt 0.405702 0.480655
vt 0.407668 0.48475
vt 0.416739 0.343471
vt 0.416739 0.406501
vt 0.443374 0.690493
vt 0.445374 0.258355
vt 0.451387 0.475433
vt 0.464449 0.256718
vt 0.48757 0.66167
vt 0.497101 0.457311
vt 0.506179 0.647804
vt 0.521408 0.747612
vt 0.522066 0.99727
vt 0.52284 0.44074
vt 0.545402 0.416762
vt 0.625878 0.74761
vt 0.629727 0.997491
vt 0.656619 0.647803
vt 0.677603 0.663834
vt 0.690033 0.127518
vt 0.690033 0.240212
vt 0.691741 0.00639021
vt 0.691741 0.121107
vt 0.708193 0.0252928
vt 0.708193 0.102205
vt 0.708602 0.146087
vt 0.708602 0.221643
vt 0.712548 0.475419
vt 0.72112 0.693651
vt 0.721683 0.415735
vt 0.728663 0.442129
vt 0.744289 0.488491
vt 0.756973 0.459065
vt 0.777082 0.254933
vt 0.796231 0.260722
vt 0.809134 0.146087
vt 0.809134 0.221643
vt 0.81053 0.0252928
vt 0.81053 0.102205
vt 0.813367 0.951582
vt 0.825296 0.127518
vt 0.825296 0.240212
vt 0.829216 0.409446
vt 0.829432 0.00639021
vt 0.829432 0.121107
vt 0.830987 0.490895
vt 0.831614 0.651327
vt 0.833597 0.568543
vt 0.837619 0.853937
vt 0.840039 0.71253
vt 0.842888 0.260835
vt 0.843275 0.707304
vt 0.844407 0.994458
vt 0.849183 0.850186
vt 0.876764 0.564854
vt 0.979179 0.565742
vt 0.984988 0.850233
vt 0.993302 0.70838
vt 0.993906 0.994547
vt 0.994149 0.712585
vt 0.998861 0.410916
vt 0.999005 0.568533
vt 0.999252 0.854037
vn -1 8.13127e-010 -4.32199e-008
vn -1 8.13936e-010 -4.32196e-008
vn -1 8.14745e-010 -4.32193e-008
vn -1 1.15745e-006 -7.92804e-008
vn -1 1.32961e-006 -1.33774e-008
vn -1 1.50176e-006 5.25256e-008
vn -0.889194 0.115576 -0.442692
vn -0.7735 0.484348 -0.408785
vn -0.697901 0.259044 0.667705
vn -0.697899 0.259048 0.667706
vn -0.597625 0.562468 0.571379
vn -0.444596 0.135754 -0.885384
vn -0.344097 0.791578 0.504977
vn -0.219348 0.605087 -0.765347
vn -0.0306556 0.320877 -0.946625
vn -0.0283659 0.277252 -0.960378
vn -0.00508417 0.460795 0.887492
vn -0.00265939 0.707074 -0.707135
vn -0.00264777 0.707094 -0.707115
vn -0.00214009 0.554735 0.832024
vn -0.00168059 0.447179 -0.894443
vn -0.00163772 0.447228 0.894418
vn -0.00141869 0.371389 0.928476
vn -0.00140426 0.466642 0.884445
vn -8.83164e-005 6.19067e-005 1
vn -7.01347e-005 -5.86126e-005 1
vn -2.74446e-005 3.65894e-005 1
vn -1.65717e-005 -3.295e-005 1
vn -9.07873e-006 -2.36368e-005 -1
vn -6.85595e-006 1.96825e-005 1
vn -5.9364e-006 -3.29722e-005 -1
vn 8.51398e-007 -2.90836e-005 1
vn 1.01288e-005 2.46564e-005 1
vn 2.77516e-005 -1.75192e-005 1
vn 0.00135779 -0.371384 0.928478
vn 0.00156658 -0.447233 0.894416
vn 0.00166849 -0.44721 -0.894427
vn 0.00210968 -0.554728 0.832029
vn 0.00264196 -0.707108 -0.7071
vn 0.00265627 -0.707093 -0.707116
vn 0.00272534 0.467395 0.884044
vn 0.00549886 0.454135 0.890916
vn 0.0137317 0.281695 -0.959406
vn 0.0307079 0.317688 -0.947698
vn 0.151949 0.659368 -0.736305
vn 0.339111 0.669504 0.660884
vn 0.44232 0.296713 0.846354
vn 0.601765 0.559307 0.570136
vn 0.702389 0.132355 -0.69938
vn 0.702393 0.132363 -0.699374
vn 0.776166 0.479964 -0.408902
vn 0.884634 0.195814 0.423178
vn 1 -2.47974e-006 -2.96317e-007
vn 1 -2.19281e-006 -1.86479e-007
vn 1 -1.90589e-006 -7.66407e-008
vn 1 -2.86921e-007 -1.09837e-007
vn 1 1.42109e-014 3.55271e-015
vn 1 2.86921e-007 1.09837e-007
usemtl Texture_Launcher_Rocket
s 1
f 33/27/39 10/4/36 9/25/40
f 33/27/39 32/3/35 10/4/36
f 12/1/20 30/26/19 11/24/21
f 31/2/23 30/26/19 12/1/20
f 11/34/21 30/23/19 33/22/39
f 3/38/29 11/34/21 33/22/39
f 3/38/29 33/22/39 9/35/40
f 28/77/32 17/87/26 10/92/36
f 32/71/35 28/77/32 10/92/36
f 18/88/25 12/93/20 10/92/36
f 17/87/26 18/88/25 10/92/36
f 31/72/23 12/93/20 29/78/27
f 29/78/27 12/93/20 18/88/25
f 29/78/27 28/77/32 32/71/35
f 31/72/23 29/78/27 32/71/35
f 21/64/14 20/63/13 43/68/45
f 20/63/13 42/67/46 43/68/45
f 40/66/17 19/85/41 54/59/24
f 40/66/17 23/81/42 19/85/41
f 42/67/46 61/98/48 62/91/51
f 43/68/45 42/67/46 62/91/51
f 20/63/13 21/64/14 2/29/8
f 1/30/11 20/63/13 2/29/8
f 42/56/46 54/53/24 61/43/48
f 42/56/46 40/60/17 54/53/24
f 42/56/46 20/80/13 23/70/42
f 42/56/46 23/70/42 40/60/17
f 20/80/13 1/97/11 19/83/41
f 23/70/42 20/80/13 19/83/41
f 2/102/8 21/84/14 8/86/44
f 21/84/14 22/82/43 8/86/44
f 21/84/14 43/61/45 22/82/43
f 22/82/43 43/61/45 41/65/16
f 43/61/45 62/50/51 59/57/15
f 41/65/16 43/61/45 59/57/15
f 51/28/37 50/5/38 33/31/39
f 50/5/38 32/10/35 33/31/39
f 53/12/22 52/33/18 30/32/19
f 31/11/23 53/12/22 30/32/19
f 30/21/19 51/14/37 33/20/39
f 30/21/19 52/15/18 60/13/31
f 30/21/19 60/13/31 51/14/37
f 44/75/34 35/89/28 50/73/38
f 50/73/38 35/89/28 32/95/35
f 53/74/22 45/76/33 44/75/34
f 53/74/22 44/75/34 50/73/38
f 45/76/33 53/74/22 34/90/30
f 53/74/22 31/96/23 34/90/30
f 34/90/30 31/96/23 35/89/28
f 35/89/28 31/96/23 32/95/35
f 58/49/57 56/9/58 57/7/57
f 55/47/56 58/49/57 57/7/57
f 47/16/3 49/45/2 46/17/2
f 49/45/2 48/42/1 46/17/2
f 6/48/5 5/46/4 4/6/5
f 7/8/6 6/48/5 4/6/5
f 15/44/54 16/18/55 14/19/54
f 13/41/53 15/44/54 14/19/54
f 26/104/9 25/100/10 39/114/47
f 37/110/52 26/104/9 39/114/47
f 37/106/52 39/94/47 38/112/49
f 36/107/50 37/106/52 38/112/49
f 27/108/12 36/105/50 38/101/49
f 24/111/7 27/108/12 38/101/49
f 26/109/9 27/103/12 24/99/7
f 25/113/10 26/109/9 24/99/7
f 8/79/44 22/69/43 59/58/15
f 22/69/43 41/62/16 59/58/15
f 45/55/33 34/39/30 44/54/34
f 44/54/34 34/39/30 35/40/28
f 29/52/27 18/37/25 28/51/32
f 28/51/32 18/37/25 17/36/26
